<svg width="54" height="54" viewBox="0 0 54 54" fill="none" xmlns="http://www.w3.org/2000/svg">
<rect x="1" y="1" width="52" height="52" rx="26" fill="url(#paint0_linear_287_4291)"/>
<rect x="1" y="1" width="52" height="52" rx="26" stroke="url(#paint1_linear_287_4291)" stroke-width="2"/>
<path fill-rule="evenodd" clip-rule="evenodd" d="M27 15.625C27.4487 15.625 27.8125 15.9888 27.8125 16.4375V18.875C27.8125 19.3237 27.4487 19.6875 27 19.6875C26.5513 19.6875 26.1875 19.3237 26.1875 18.875V16.4375C26.1875 15.9888 26.5513 15.625 27 15.625ZM20.1057 18.4807C20.423 18.1634 20.9375 18.1634 21.2548 18.4807L22.9783 20.2043C23.2956 20.5216 23.2956 21.036 22.9783 21.3533C22.661 21.6706 22.1466 21.6706 21.8293 21.3533L20.1057 19.6298C19.7884 19.3125 19.7884 18.798 20.1057 18.4807ZM33.8943 18.4807C34.2116 18.798 34.2116 19.3125 33.8943 19.6298L32.1707 21.3533C31.8534 21.6706 31.339 21.6706 31.0217 21.3533C30.7044 21.036 30.7044 20.5216 31.0217 20.2043L32.7452 18.4807C33.0625 18.1634 33.577 18.1634 33.8943 18.4807ZM26.5108 23.3511C26.8486 23.2606 27.2064 23.3964 27.3991 23.6882L33.0618 32.2649C33.2429 32.5391 33.2409 32.8954 33.0569 33.1676C32.8728 33.4399 32.5429 33.5744 32.2209 33.5085L29.9489 33.0436L31.0807 37.2675C31.1968 37.7009 30.9396 38.1465 30.5061 38.2626C30.0727 38.3787 29.6272 38.1215 29.511 37.6881L28.3793 33.4643L26.6444 35.0028C26.3985 35.2208 26.0455 35.2693 25.7499 35.1255C25.4544 34.9818 25.2745 34.6742 25.2942 34.3462L25.91 24.0872C25.931 23.7381 26.1729 23.4416 26.5108 23.3511ZM17.25 25.375C17.25 24.9263 17.6138 24.5625 18.0625 24.5625H20.5C20.9487 24.5625 21.3125 24.9263 21.3125 25.375C21.3125 25.8237 20.9487 26.1875 20.5 26.1875H18.0625C17.6138 26.1875 17.25 25.8237 17.25 25.375ZM32.6875 25.375C32.6875 24.9263 33.0513 24.5625 33.5 24.5625H35.9375C36.3862 24.5625 36.75 24.9263 36.75 25.375C36.75 25.8237 36.3862 26.1875 35.9375 26.1875H33.5C33.0513 26.1875 32.6875 25.8237 32.6875 25.375ZM22.9783 29.3967C23.2956 29.714 23.2956 30.2284 22.9783 30.5457L21.2548 32.2693C20.9375 32.5866 20.423 32.5866 20.1057 32.2693C19.7884 31.952 19.7884 31.4375 20.1057 31.1202L21.8293 29.3967C22.1466 29.0794 22.661 29.0794 22.9783 29.3967Z" fill="white"/>
<defs>
<linearGradient id="paint0_linear_287_4291" x1="27" y1="2" x2="27" y2="52" gradientUnits="userSpaceOnUse">
<stop stop-color="#1A1A1A"/>
<stop offset="1" stop-color="#1A1A1A" stop-opacity="0"/>
</linearGradient>
<linearGradient id="paint1_linear_287_4291" x1="27" y1="2" x2="27" y2="52" gradientUnits="userSpaceOnUse">
<stop stop-color="#333333"/>
<stop offset="0.84964" stop-color="#333333" stop-opacity="0"/>
</linearGradient>
</defs>
</svg>
