<svg width="40" height="28" viewBox="0 0 40 28" fill="none" xmlns="http://www.w3.org/2000/svg">
<path d="M5.45426 28V22.2108H10.6055C11.8933 22.2108 13.0549 22.0216 14.0902 21.6432C15.1255 21.2396 16.0093 20.6847 16.7415 19.9784C17.4738 19.2468 18.0294 18.3766 18.4081 17.3676C18.7869 16.3333 18.9763 15.1982 18.9763 13.9622C18.9763 12.6757 18.7869 11.5279 18.4081 10.5189C18.0294 9.50991 17.4738 8.65225 16.7415 7.94595C16.0093 7.23964 15.1255 6.70991 14.0902 6.35676C13.0549 5.97838 11.8933 5.78919 10.6055 5.78919H5.45426V0H10.2646C12.7645 0 14.9487 0.365767 16.8173 1.0973C18.6859 1.82883 20.2515 2.82523 21.514 4.08649C22.7766 5.34775 23.7109 6.7982 24.3169 8.43784C24.9482 10.0523 25.2638 11.755 25.2638 13.5459V14.3784C25.2638 16.0432 24.9482 17.6955 24.3169 19.3351C23.7109 20.9495 22.7766 22.4126 21.514 23.7243C20.2515 25.0108 18.6859 26.045 16.8173 26.827C14.9487 27.609 12.7645 28 10.2646 28H5.45426ZM0 28V0H6.21179V28H0Z" fill="#666666"/>
<path d="M12.3856 27.8487L21.8169 13.1298L21.8927 13.773L13.181 0.227051H19.9989L25.3774 8.85408H26.2485L31.5513 0.227051H38.1797L29.4302 13.8487L29.3165 13.2433L39.0509 27.8487H32.1952L25.9076 18.0865H24.9986L19.0141 27.8487H12.3856Z" fill="white"/>
</svg>
