<svg width="84" height="84" viewBox="0 0 84 84" fill="none" xmlns="http://www.w3.org/2000/svg">
<g filter="url(#filter0_i_287_4327)">
<path d="M21.1667 41.9999L42 21.1666L62.8334 41.9999L42 62.8332L21.1667 41.9999Z" fill="white" fill-opacity="0.02"/>
<path d="M21.1667 41.9999L42 21.1666L62.8334 41.9999L42 62.8332L21.1667 41.9999Z" fill="url(#paint0_linear_287_4327)" fill-opacity="0.2"/>
<path d="M83.6667 16.9999V41.9999L42 0.333252H67L83.6667 16.9999Z" fill="white" fill-opacity="0.02"/>
<path d="M83.6667 16.9999V41.9999L42 0.333252H67L83.6667 16.9999Z" fill="url(#paint1_linear_287_4327)" fill-opacity="0.2"/>
<path d="M83.6667 66.9999V41.9999L42 83.6666H67L83.6667 66.9999Z" fill="white" fill-opacity="0.02"/>
<path d="M83.6667 66.9999V41.9999L42 83.6666H67L83.6667 66.9999Z" fill="url(#paint2_linear_287_4327)" fill-opacity="0.2"/>
<path d="M0.333374 66.9999V41.9999L42 83.6666H17L0.333374 66.9999Z" fill="white" fill-opacity="0.02"/>
<path d="M0.333374 66.9999V41.9999L42 83.6666H17L0.333374 66.9999Z" fill="url(#paint3_linear_287_4327)" fill-opacity="0.2"/>
<path d="M0.333374 16.9999V41.9999L42 0.333252H17L0.333374 16.9999Z" fill="white" fill-opacity="0.02"/>
<path d="M0.333374 16.9999V41.9999L42 0.333252H17L0.333374 16.9999Z" fill="url(#paint4_linear_287_4327)" fill-opacity="0.2"/>
</g>
<defs>
<filter id="filter0_i_287_4327" x="0.333374" y="0.333252" width="83.3334" height="83.3333" filterUnits="userSpaceOnUse" color-interpolation-filters="sRGB">
<feFlood flood-opacity="0" result="BackgroundImageFix"/>
<feBlend mode="normal" in="SourceGraphic" in2="BackgroundImageFix" result="shape"/>
<feColorMatrix in="SourceAlpha" type="matrix" values="0 0 0 0 0 0 0 0 0 0 0 0 0 0 0 0 0 0 127 0" result="hardAlpha"/>
<feOffset/>
<feGaussianBlur stdDeviation="3"/>
<feComposite in2="hardAlpha" operator="arithmetic" k2="-1" k3="1"/>
<feColorMatrix type="matrix" values="0 0 0 0 1 0 0 0 0 1 0 0 0 0 1 0 0 0 0.2 0"/>
<feBlend mode="normal" in2="shape" result="effect1_innerShadow_287_4327"/>
</filter>
<linearGradient id="paint0_linear_287_4327" x1="42" y1="-39.7391" x2="42" y2="83.6666" gradientUnits="userSpaceOnUse">
<stop stop-color="white"/>
<stop offset="0.773658" stop-color="white" stop-opacity="0"/>
</linearGradient>
<linearGradient id="paint1_linear_287_4327" x1="42" y1="-39.7391" x2="42" y2="83.6666" gradientUnits="userSpaceOnUse">
<stop stop-color="white"/>
<stop offset="0.773658" stop-color="white" stop-opacity="0"/>
</linearGradient>
<linearGradient id="paint2_linear_287_4327" x1="42" y1="-39.7391" x2="42" y2="83.6666" gradientUnits="userSpaceOnUse">
<stop stop-color="white"/>
<stop offset="0.773658" stop-color="white" stop-opacity="0"/>
</linearGradient>
<linearGradient id="paint3_linear_287_4327" x1="42" y1="-39.7391" x2="42" y2="83.6666" gradientUnits="userSpaceOnUse">
<stop stop-color="white"/>
<stop offset="0.773658" stop-color="white" stop-opacity="0"/>
</linearGradient>
<linearGradient id="paint4_linear_287_4327" x1="42" y1="-39.7391" x2="42" y2="83.6666" gradientUnits="userSpaceOnUse">
<stop stop-color="white"/>
<stop offset="0.773658" stop-color="white" stop-opacity="0"/>
</linearGradient>
</defs>
</svg>
