<svg width="84" height="84" viewBox="0 0 84 84" fill="none" xmlns="http://www.w3.org/2000/svg">
<g filter="url(#filter0_i_287_4346)">
<path d="M42 41.9999H62.8334L83.6667 21.1666V0.333252H62.8334L42 21.1666V41.9999Z" fill="white" fill-opacity="0.02"/>
<path d="M42 41.9999H62.8334L83.6667 21.1666V0.333252H62.8334L42 21.1666V41.9999Z" fill="url(#paint0_linear_287_4346)" fill-opacity="0.2"/>
<path d="M42 83.6666H62.8334L83.6667 62.8332V41.9999H62.8334L42 62.8332V83.6666Z" fill="white" fill-opacity="0.02"/>
<path d="M42 83.6666H62.8334L83.6667 62.8332V41.9999H62.8334L42 62.8332V83.6666Z" fill="url(#paint1_linear_287_4346)" fill-opacity="0.2"/>
<path d="M0.333374 83.6666H21.1667L42 62.8332V41.9999H21.1667L0.333374 62.8332V83.6666Z" fill="white" fill-opacity="0.02"/>
<path d="M0.333374 83.6666H21.1667L42 62.8332V41.9999H21.1667L0.333374 62.8332V83.6666Z" fill="url(#paint2_linear_287_4346)" fill-opacity="0.2"/>
<path d="M0.333374 41.9999H21.1667L42 21.1666V0.333252H21.1667L0.333374 21.1666V41.9999Z" fill="white" fill-opacity="0.02"/>
<path d="M0.333374 41.9999H21.1667L42 21.1666V0.333252H21.1667L0.333374 21.1666V41.9999Z" fill="url(#paint3_linear_287_4346)" fill-opacity="0.2"/>
</g>
<defs>
<filter id="filter0_i_287_4346" x="0.333374" y="0.333252" width="83.3334" height="83.3333" filterUnits="userSpaceOnUse" color-interpolation-filters="sRGB">
<feFlood flood-opacity="0" result="BackgroundImageFix"/>
<feBlend mode="normal" in="SourceGraphic" in2="BackgroundImageFix" result="shape"/>
<feColorMatrix in="SourceAlpha" type="matrix" values="0 0 0 0 0 0 0 0 0 0 0 0 0 0 0 0 0 0 127 0" result="hardAlpha"/>
<feOffset/>
<feGaussianBlur stdDeviation="3"/>
<feComposite in2="hardAlpha" operator="arithmetic" k2="-1" k3="1"/>
<feColorMatrix type="matrix" values="0 0 0 0 1 0 0 0 0 1 0 0 0 0 1 0 0 0 0.2 0"/>
<feBlend mode="normal" in2="shape" result="effect1_innerShadow_287_4346"/>
</filter>
<linearGradient id="paint0_linear_287_4346" x1="42" y1="-39.7391" x2="42" y2="83.6666" gradientUnits="userSpaceOnUse">
<stop stop-color="white"/>
<stop offset="0.773658" stop-color="white" stop-opacity="0"/>
</linearGradient>
<linearGradient id="paint1_linear_287_4346" x1="42" y1="-39.7391" x2="42" y2="83.6666" gradientUnits="userSpaceOnUse">
<stop stop-color="white"/>
<stop offset="0.773658" stop-color="white" stop-opacity="0"/>
</linearGradient>
<linearGradient id="paint2_linear_287_4346" x1="42" y1="-39.7391" x2="42" y2="83.6666" gradientUnits="userSpaceOnUse">
<stop stop-color="white"/>
<stop offset="0.773658" stop-color="white" stop-opacity="0"/>
</linearGradient>
<linearGradient id="paint3_linear_287_4346" x1="42" y1="-39.7391" x2="42" y2="83.6666" gradientUnits="userSpaceOnUse">
<stop stop-color="white"/>
<stop offset="0.773658" stop-color="white" stop-opacity="0"/>
</linearGradient>
</defs>
</svg>
