<svg width="92" height="96" viewBox="0 0 92 96" fill="none" xmlns="http://www.w3.org/2000/svg">
<g filter="url(#filter0_i_287_4384)">
<path d="M46 83.4168L68.9166 95.9168L91.8333 83.4168V54.2502L68.9166 68.8335L46 54.2502V83.4168Z" fill="white" fill-opacity="0.02"/>
<path d="M46 83.4168L68.9166 95.9168L91.8333 83.4168V54.2502L68.9166 68.8335L46 54.2502V83.4168Z" fill="url(#paint0_linear_287_4384)" fill-opacity="0.2"/>
<path d="M0.166626 54.2502L23.0833 41.7502L46 54.2502L23.0833 68.8335V95.9168L0.166626 83.4168V54.2502Z" fill="white" fill-opacity="0.02"/>
<path d="M0.166626 54.2502L23.0833 41.7502L46 54.2502L23.0833 68.8335V95.9168L0.166626 83.4168V54.2502Z" fill="url(#paint1_linear_287_4384)" fill-opacity="0.2"/>
<path d="M68.9166 41.7502L46 54.2502V27.1668L23.0833 12.5835L46 0.0834961L68.9166 12.5835V41.7502Z" fill="white" fill-opacity="0.02"/>
<path d="M68.9166 41.7502L46 54.2502V27.1668L23.0833 12.5835L46 0.0834961L68.9166 12.5835V41.7502Z" fill="url(#paint2_linear_287_4384)" fill-opacity="0.2"/>
</g>
<defs>
<filter id="filter0_i_287_4384" x="0.166626" y="0.0834961" width="91.6666" height="95.8335" filterUnits="userSpaceOnUse" color-interpolation-filters="sRGB">
<feFlood flood-opacity="0" result="BackgroundImageFix"/>
<feBlend mode="normal" in="SourceGraphic" in2="BackgroundImageFix" result="shape"/>
<feColorMatrix in="SourceAlpha" type="matrix" values="0 0 0 0 0 0 0 0 0 0 0 0 0 0 0 0 0 0 127 0" result="hardAlpha"/>
<feOffset/>
<feGaussianBlur stdDeviation="3"/>
<feComposite in2="hardAlpha" operator="arithmetic" k2="-1" k3="1"/>
<feColorMatrix type="matrix" values="0 0 0 0 1 0 0 0 0 1 0 0 0 0 1 0 0 0 0.2 0"/>
<feBlend mode="normal" in2="shape" result="effect1_innerShadow_287_4384"/>
</filter>
<linearGradient id="paint0_linear_287_4384" x1="46" y1="-45.9998" x2="46" y2="95.9168" gradientUnits="userSpaceOnUse">
<stop stop-color="white"/>
<stop offset="0.773658" stop-color="white" stop-opacity="0"/>
</linearGradient>
<linearGradient id="paint1_linear_287_4384" x1="46" y1="-45.9998" x2="46" y2="95.9168" gradientUnits="userSpaceOnUse">
<stop stop-color="white"/>
<stop offset="0.773658" stop-color="white" stop-opacity="0"/>
</linearGradient>
<linearGradient id="paint2_linear_287_4384" x1="46" y1="-45.9998" x2="46" y2="95.9168" gradientUnits="userSpaceOnUse">
<stop stop-color="white"/>
<stop offset="0.773658" stop-color="white" stop-opacity="0"/>
</linearGradient>
</defs>
</svg>
