<svg width="110" height="110" viewBox="0 0 110 110" fill="none" xmlns="http://www.w3.org/2000/svg">
<rect x="1" y="1" width="108" height="108" rx="54" fill="url(#paint0_linear_287_4474)"/>
<rect x="1" y="1" width="108" height="108" rx="54" stroke="url(#paint1_linear_287_4474)" stroke-width="2"/>
<rect x="13" y="13" width="84" height="84" rx="42" fill="url(#paint2_linear_287_4474)"/>
<rect x="13" y="13" width="84" height="84" rx="42" stroke="url(#paint3_linear_287_4474)" stroke-width="2"/>
<rect x="27" y="27" width="56" height="56" rx="28" fill="url(#paint4_linear_287_4474)"/>
<rect x="27" y="27" width="56" height="56" rx="28" stroke="url(#paint5_linear_287_4474)" stroke-width="2"/>
<path d="M55 64.2082L60.9584 67.4582L66.9167 64.2082V56.6248L60.9584 60.4165L55 56.6248V64.2082Z" fill="white"/>
<path d="M43.0834 56.6248L49.0417 53.3748L55 56.6248L49.0417 60.4165V67.4582L43.0834 64.2082V56.6248Z" fill="white"/>
<path d="M60.9584 53.3748L55 56.6248V49.5832L49.0417 45.7915L55 42.5415L60.9584 45.7915V53.3748Z" fill="white"/>
<defs>
<linearGradient id="paint0_linear_287_4474" x1="55" y1="0" x2="55" y2="110" gradientUnits="userSpaceOnUse">
<stop stop-color="#1A1A1A"/>
<stop offset="0.565952" stop-color="#1A1A1A" stop-opacity="0"/>
</linearGradient>
<linearGradient id="paint1_linear_287_4474" x1="55" y1="0" x2="55" y2="110" gradientUnits="userSpaceOnUse">
<stop stop-color="#333333"/>
<stop offset="0.745602" stop-color="#333333" stop-opacity="0"/>
</linearGradient>
<linearGradient id="paint2_linear_287_4474" x1="55" y1="12" x2="55" y2="98" gradientUnits="userSpaceOnUse">
<stop stop-color="#1A1A1A"/>
<stop offset="0.658009" stop-color="#1A1A1A" stop-opacity="0"/>
</linearGradient>
<linearGradient id="paint3_linear_287_4474" x1="55" y1="12" x2="55" y2="98" gradientUnits="userSpaceOnUse">
<stop stop-color="#333333"/>
<stop offset="0.82384" stop-color="#333333" stop-opacity="0"/>
</linearGradient>
<linearGradient id="paint4_linear_287_4474" x1="55" y1="28" x2="55" y2="82" gradientUnits="userSpaceOnUse">
<stop stop-color="#1A1A1A"/>
<stop offset="1" stop-color="#1A1A1A" stop-opacity="0"/>
</linearGradient>
<linearGradient id="paint5_linear_287_4474" x1="55" y1="28" x2="55" y2="82" gradientUnits="userSpaceOnUse">
<stop stop-color="#333333"/>
<stop offset="0.84964" stop-color="#333333" stop-opacity="0"/>
</linearGradient>
</defs>
</svg>
