<svg width="54" height="54" viewBox="0 0 54 54" fill="none" xmlns="http://www.w3.org/2000/svg">
<rect x="1" y="1" width="52" height="52" rx="26" fill="url(#paint0_linear_287_4277)"/>
<rect x="1" y="1" width="52" height="52" rx="26" stroke="url(#paint1_linear_287_4277)" stroke-width="2"/>
<path d="M21.0941 27C21.0941 24.1033 21.087 21.1996 21.0941 18.3029C21.0941 17.1106 21.6972 16.2409 22.7563 15.8972C23.0088 15.813 23.2824 15.778 23.5489 15.778C25.9967 15.771 28.4375 15.771 30.8783 15.778C32.302 15.785 33.3401 16.816 33.3401 18.2328C33.3471 24.0752 33.3471 29.9177 33.3401 35.7672C33.3401 37.184 32.302 38.222 30.8853 38.222C28.4655 38.229 26.0458 38.229 23.626 38.222C22.1111 38.222 21.1011 37.226 21.1011 35.697C21.087 32.7933 21.0941 29.8967 21.0941 27ZM27.2241 17.812C26.7471 17.812 26.2702 17.812 25.7933 17.812C25.4145 17.819 25.2041 17.9943 25.1971 18.3029C25.1901 18.6185 25.3865 18.836 25.7512 18.836C26.7331 18.85 27.708 18.85 28.69 18.836C29.0406 18.829 29.2791 18.5905 29.2651 18.3029C29.2511 18.0083 29.0196 17.812 28.6619 17.812C28.178 17.812 27.701 17.812 27.2241 17.812ZM27.2241 34.147C26.649 34.147 26.1931 34.5959 26.2001 35.164C26.2071 35.7251 26.677 36.181 27.2381 36.174C27.7852 36.167 28.2271 35.7251 28.2341 35.171C28.2341 34.5889 27.7992 34.154 27.2241 34.147Z" fill="white"/>
<defs>
<linearGradient id="paint0_linear_287_4277" x1="27" y1="2" x2="27" y2="52" gradientUnits="userSpaceOnUse">
<stop stop-color="#1A1A1A"/>
<stop offset="1" stop-color="#1A1A1A" stop-opacity="0"/>
</linearGradient>
<linearGradient id="paint1_linear_287_4277" x1="27" y1="2" x2="27" y2="52" gradientUnits="userSpaceOnUse">
<stop stop-color="#333333"/>
<stop offset="0.84964" stop-color="#333333" stop-opacity="0"/>
</linearGradient>
</defs>
</svg>
